<?xml version="1.0" encoding="UTF-8" standalone="no"?>
<svg
   xmlns:dc="http://purl.org/dc/elements/1.1/"
   xmlns:cc="http://creativecommons.org/ns#"
   xmlns:rdf="http://www.w3.org/1999/02/22-rdf-syntax-ns#"
   xmlns:svg="http://www.w3.org/2000/svg"
   xmlns="http://www.w3.org/2000/svg"
   xmlns:xlink="http://www.w3.org/1999/xlink"
   xmlns:sodipodi="http://sodipodi.sourceforge.net/DTD/sodipodi-0.dtd"
   xmlns:inkscape="http://www.inkscape.org/namespaces/inkscape"
   sodipodi:docname="Part1Diagram.svg"
   inkscape:version="1.0 (4035a4fb49, 2020-05-01)"
   id="svg8"
   version="1.1"
   viewBox="0 0 297 210"
   height="210mm"
   width="297mm">
  <defs
     id="defs2">
    <marker
       inkscape:isstock="true"
       style="overflow:visible"
       id="marker1859"
       refX="0"
       refY="0"
       orient="auto"
       inkscape:stockid="Arrow1Mend">
      <path
         transform="matrix(-0.4,0,0,-0.4,-4,0)"
         style="fill:#828282;fill-opacity:1;fill-rule:evenodd;stroke:#828282;stroke-width:1pt;stroke-opacity:1"
         d="M 0,0 5,-5 -12.5,0 5,5 Z"
         id="path1857" />
    </marker>
    <inkscape:path-effect
       effect="powerclip"
       id="path-effect1848"
       is_visible="true"
       lpeversion="1"
       inverse="true"
       flatten="false"
       hide_clip="false"
       message="Use fill-rule evenodd on &lt;b&gt;fill and stroke&lt;/b&gt; dialog if no flatten result after convert clip to paths." />
    <inkscape:path-effect
       message="Use fill-rule evenodd on &lt;b&gt;fill and stroke&lt;/b&gt; dialog if no flatten result after convert clip to paths."
       hide_clip="false"
       flatten="false"
       inverse="true"
       lpeversion="1"
       is_visible="true"
       id="path-effect1780"
       effect="powerclip" />
    <linearGradient
       inkscape:collect="always"
       id="linearGradient1748">
      <stop
         style="stop-color:#ffffff;stop-opacity:1"
         offset="0"
         id="stop1744" />
      <stop
         style="stop-color:#0088d0;stop-opacity:1"
         offset="1"
         id="stop1746" />
    </linearGradient>
    <linearGradient
       inkscape:collect="always"
       id="linearGradient1652">
      <stop
         style="stop-color:#e1e1e1;stop-opacity:1"
         offset="0"
         id="stop1648" />
      <stop
         style="stop-color:#949494;stop-opacity:1"
         offset="1"
         id="stop1650" />
    </linearGradient>
    <linearGradient
       id="linearGradient1608"
       inkscape:collect="always">
      <stop
         id="stop1604"
         offset="0"
         style="stop-color:#828282;stop-opacity:1" />
      <stop
         id="stop1606"
         offset="1"
         style="stop-color:#e1e1e1;stop-opacity:1" />
    </linearGradient>
    <marker
       inkscape:isstock="true"
       style="overflow:visible"
       id="Arrow1Mend"
       refX="0"
       refY="0"
       orient="auto"
       inkscape:stockid="Arrow1Mend">
      <path
         transform="matrix(-0.4,0,0,-0.4,-4,0)"
         style="fill:#000000;fill-opacity:1;fill-rule:evenodd;stroke:#000000;stroke-width:1pt;stroke-opacity:1"
         d="M 0,0 5,-5 -12.5,0 5,5 Z"
         id="path879" />
    </marker>
    <marker
       inkscape:isstock="true"
       style="overflow:visible"
       id="Arrow1Lend"
       refX="0"
       refY="0"
       orient="auto"
       inkscape:stockid="Arrow1Lend">
      <path
         transform="matrix(-0.8,0,0,-0.8,-10,0)"
         style="fill:#000000;fill-opacity:1;fill-rule:evenodd;stroke:#000000;stroke-width:1pt;stroke-opacity:1"
         d="M 0,0 5,-5 -12.5,0 5,5 Z"
         id="path873" />
    </marker>
    <linearGradient
       id="linearGradient850"
       inkscape:collect="always">
      <stop
         id="stop846"
         offset="0"
         style="stop-color:#e3ebff;stop-opacity:0" />
      <stop
         id="stop848"
         offset="1"
         style="stop-color:#0088d0;stop-opacity:1" />
    </linearGradient>
    <radialGradient
       gradientTransform="translate(14.372793,5.8091354)"
       gradientUnits="userSpaceOnUse"
       r="12.118685"
       fy="167.00655"
       fx="49.159702"
       cy="167.00655"
       cx="49.159702"
       id="radialGradient854"
       xlink:href="#linearGradient1748"
       inkscape:collect="always" />
    <linearGradient
       gradientTransform="matrix(0.51587572,0,0,0.99321209,84.263215,0.40188898)"
       gradientUnits="userSpaceOnUse"
       y2="85.453323"
       x2="103.11145"
       y1="85.453323"
       x1="95.840942"
       id="linearGradient1610"
       xlink:href="#linearGradient1608"
       inkscape:collect="always" />
    <radialGradient
       gradientUnits="userSpaceOnUse"
       gradientTransform="matrix(-0.99028266,0.00918351,-0.01847119,-1.9917925,210.94772,501.93194)"
       r="25.102362"
       fy="170.12796"
       fx="96.671242"
       cy="170.12796"
       cx="96.671242"
       id="radialGradient1646"
       xlink:href="#linearGradient1652"
       inkscape:collect="always" />
    <clipPath
       id="clipPath1774"
       clipPathUnits="userSpaceOnUse">
      <path
         d="m 95.71147,164.3171 a 11.545685,11.545685 0 0 0 -3.356901,0.49919 H 70.086678 c -2.448272,0 -4.419367,1.9711 -4.419367,4.41937 v 13.2178 c 0,2.44827 1.971095,4.41937 4.419367,4.41937 h 22.149035 a 11.545685,11.545685 0 0 0 3.475757,0.53588 11.545685,11.545685 0 0 0 11.54606,-11.54554 11.545685,11.545685 0 0 0 -11.54606,-11.54607 z"
         style="display:none;fill:url(#radialGradient1778);fill-opacity:1;stroke:#000000;stroke-width:0.446;stroke-linecap:round;stroke-linejoin:round;stroke-miterlimit:4;stroke-dasharray:none;stroke-opacity:1"
         id="path1776" />
      <path
         d="m 64.586718,150.77978 h 60.204722 v 53.3605 H 64.586718 Z M 95.71147,164.3171 a 11.545685,11.545685 0 0 0 -3.356901,0.49919 H 70.086678 c -2.448272,0 -4.419367,1.9711 -4.419367,4.41937 v 13.2178 c 0,2.44827 1.971095,4.41937 4.419367,4.41937 h 22.149035 a 11.545685,11.545685 0 0 0 3.475757,0.53588 11.545685,11.545685 0 0 0 11.54606,-11.54554 11.545685,11.545685 0 0 0 -11.54606,-11.54607 z"
         class="powerclip"
         style="fill:url(#radialGradient1778);fill-opacity:1;stroke:#000000;stroke-width:0.446;stroke-linecap:round;stroke-linejoin:round;stroke-miterlimit:4;stroke-dasharray:none;stroke-opacity:1"
         id="lpe_path-effect1780" />
    </clipPath>
    <radialGradient
       r="12.118685"
       fy="167.00655"
       fx="49.159702"
       cy="167.00655"
       cx="49.159702"
       gradientTransform="translate(51.034746,5.1999935)"
       gradientUnits="userSpaceOnUse"
       id="radialGradient1778"
       xlink:href="#linearGradient850"
       inkscape:collect="always" />
    <linearGradient
       inkscape:collect="always"
       xlink:href="#linearGradient1608"
       id="linearGradient1610-9"
       x1="95.840942"
       y1="85.453323"
       x2="103.11145"
       y2="85.453323"
       gradientUnits="userSpaceOnUse"
       gradientTransform="matrix(0.51587571,0,0,0.99321209,59.688715,67.170273)" />
    <radialGradient
       inkscape:collect="always"
       xlink:href="#linearGradient1652"
       id="radialGradient1646-7"
       cx="96.671242"
       cy="170.12796"
       fx="96.671242"
       fy="170.12796"
       r="25.102362"
       gradientTransform="matrix(-0.99028266,0.00918351,-0.01847119,-1.9917925,210.94772,501.93194)"
       gradientUnits="userSpaceOnUse" />
    <clipPath
       clipPathUnits="userSpaceOnUse"
       id="clipPath1774-3">
      <path
         id="path1776-6"
         style="display:none;fill:url(#radialGradient1778);fill-opacity:1;stroke:#000000;stroke-width:0.446;stroke-linecap:round;stroke-linejoin:round;stroke-miterlimit:4;stroke-dasharray:none;stroke-opacity:1"
         d="m 95.71147,164.3171 a 11.545685,11.545685 0 0 0 -3.356901,0.49919 H 70.086678 c -2.448272,0 -4.419367,1.9711 -4.419367,4.41937 v 13.2178 c 0,2.44827 1.971095,4.41937 4.419367,4.41937 h 22.149035 a 11.545685,11.545685 0 0 0 3.475757,0.53588 11.545685,11.545685 0 0 0 11.54606,-11.54554 11.545685,11.545685 0 0 0 -11.54606,-11.54607 z" />
      <path
         id="lpe_path-effect1780-0"
         style="fill:url(#radialGradient1778);fill-opacity:1;stroke:#000000;stroke-width:0.446;stroke-linecap:round;stroke-linejoin:round;stroke-miterlimit:4;stroke-dasharray:none;stroke-opacity:1"
         class="powerclip"
         d="m 64.586718,150.77978 h 60.204722 v 53.3605 H 64.586718 Z M 95.71147,164.3171 a 11.545685,11.545685 0 0 0 -3.356901,0.49919 H 70.086678 c -2.448272,0 -4.419367,1.9711 -4.419367,4.41937 v 13.2178 c 0,2.44827 1.971095,4.41937 4.419367,4.41937 h 22.149035 a 11.545685,11.545685 0 0 0 3.475757,0.53588 11.545685,11.545685 0 0 0 11.54606,-11.54554 11.545685,11.545685 0 0 0 -11.54606,-11.54607 z" />
    </clipPath>
    <clipPath
       id="clipath_lpe_path-effect1848"
       clipPathUnits="userSpaceOnUse">
      <path
         d="m 95.71147,164.3171 a 11.545685,11.545685 0 0 0 -3.356901,0.49919 H 70.086678 c -2.448272,0 -4.419367,1.9711 -4.419367,4.41937 v 13.2178 c 0,2.44827 1.971095,4.41937 4.419367,4.41937 h 22.149035 a 11.545685,11.545685 0 0 0 3.475757,0.53588 11.545685,11.545685 0 0 0 11.54606,-11.54554 11.545685,11.545685 0 0 0 -11.54606,-11.54607 z"
         style="display:none;fill:url(#radialGradient1778);fill-opacity:1;stroke:#000000;stroke-width:0.446;stroke-linecap:round;stroke-linejoin:round;stroke-miterlimit:4;stroke-dasharray:none;stroke-opacity:1"
         id="path1850" />
      <path
         d="m 64.586718,150.77978 h 60.204722 v 53.3605 H 64.586718 Z M 95.71147,164.3171 a 11.545685,11.545685 0 0 0 -3.356901,0.49919 H 70.086678 c -2.448272,0 -4.419367,1.9711 -4.419367,4.41937 v 13.2178 c 0,2.44827 1.971095,4.41937 4.419367,4.41937 h 22.149035 a 11.545685,11.545685 0 0 0 3.475757,0.53588 11.545685,11.545685 0 0 0 11.54606,-11.54554 11.545685,11.545685 0 0 0 -11.54606,-11.54607 z"
         class="powerclip"
         style="fill:url(#radialGradient1778);fill-opacity:1;stroke:#000000;stroke-width:0.446;stroke-linecap:round;stroke-linejoin:round;stroke-miterlimit:4;stroke-dasharray:none;stroke-opacity:1"
         id="lpe_path-effect1848" />
    </clipPath>
    <radialGradient
       inkscape:collect="always"
       xlink:href="#linearGradient1748"
       id="radialGradient854-6"
       cx="49.159702"
       cy="167.00655"
       fx="49.159702"
       fy="167.00655"
       r="12.118685"
       gradientUnits="userSpaceOnUse"
       gradientTransform="translate(172.81178,-15.73306)" />
    <marker
       inkscape:stockid="Arrow1Mend"
       orient="auto"
       refY="0"
       refX="0"
       id="marker1859-0"
       style="overflow:visible"
       inkscape:isstock="true">
      <path
         id="path1857-2"
         d="M 0,0 5,-5 -12.5,0 5,5 Z"
         style="fill:#000000;fill-opacity:1;fill-rule:evenodd;stroke:#000000;stroke-width:1pt;stroke-opacity:1"
         transform="matrix(-0.4,0,0,-0.4,-4,0)" />
    </marker>
    <g
       id="g4908">
      <symbol
         id="symbol5919"
         overflow="visible">
        <path
           id="path4052"
           d=""
           style="stroke:none;" />
      </symbol>
      <symbol
         id="symbol337"
         overflow="visible">
        <path
           id="path2363"
           d="M 4.53125 -4.984375 C 4.53125 -5.640625 4.359375 -7.03125 3.34375 -7.03125 C 1.953125 -7.03125 0.421875 -4.21875 0.421875 -1.9375 C 0.421875 -1 0.703125 0.109375 1.609375 0.109375 C 3.015625 0.109375 4.53125 -2.75 4.53125 -4.984375 Z M 1.46875 -3.625 C 1.640625 -4.25 1.84375 -5.046875 2.25 -5.765625 C 2.515625 -6.25 2.875 -6.8125 3.328125 -6.8125 C 3.8125 -6.8125 3.875 -6.171875 3.875 -5.609375 C 3.875 -5.109375 3.796875 -4.609375 3.5625 -3.625 Z M 3.46875 -3.296875 C 3.359375 -2.84375 3.15625 -2 2.765625 -1.28125 C 2.421875 -0.59375 2.046875 -0.109375 1.609375 -0.109375 C 1.28125 -0.109375 1.078125 -0.40625 1.078125 -1.328125 C 1.078125 -1.75 1.140625 -2.328125 1.390625 -3.296875 Z M 3.46875 -3.296875 "
           style="stroke:none;" />
      </symbol>
    </g>
    <g
       id="g6773">
      <symbol
         id="symbol3670"
         overflow="visible">
        <path
           id="path5443"
           d=""
           style="stroke:none;" />
      </symbol>
      <symbol
         id="symbol6560"
         overflow="visible">
        <path
           id="path3366"
           d="M 4.40625 -6.953125 C 4.34375 -7.09375 4.3125 -7.140625 4.140625 -7.140625 C 3.984375 -7.140625 3.953125 -7.09375 3.890625 -6.953125 L 0.515625 -0.203125 C 0.46875 -0.109375 0.46875 -0.09375 0.46875 -0.078125 C 0.46875 0 0.53125 0 0.6875 0 L 7.609375 0 C 7.765625 0 7.828125 0 7.828125 -0.078125 C 7.828125 -0.09375 7.828125 -0.109375 7.78125 -0.203125 Z M 3.828125 -6.140625 L 6.515625 -0.75 L 1.140625 -0.75 Z M 3.828125 -6.140625 "
           style="stroke:none;" />
      </symbol>
      <symbol
         id="symbol4004"
         overflow="visible">
        <path
           id="path1622"
           d=""
           style="stroke:none;" />
      </symbol>
      <symbol
         id="symbol1597"
         overflow="visible">
        <path
           id="path5963"
           d="M 2.859375 -6.8125 C 2.859375 -6.8125 2.859375 -6.921875 2.734375 -6.921875 C 2.5 -6.921875 1.78125 -6.84375 1.515625 -6.8125 C 1.4375 -6.8125 1.328125 -6.796875 1.328125 -6.625 C 1.328125 -6.5 1.421875 -6.5 1.5625 -6.5 C 2.046875 -6.5 2.0625 -6.4375 2.0625 -6.328125 L 2.03125 -6.125 L 0.59375 -0.390625 C 0.546875 -0.25 0.546875 -0.234375 0.546875 -0.171875 C 0.546875 0.0625 0.75 0.109375 0.84375 0.109375 C 1 0.109375 1.15625 -0.015625 1.203125 -0.15625 L 1.390625 -0.90625 L 1.609375 -1.796875 C 1.671875 -2.03125 1.734375 -2.25 1.78125 -2.46875 C 1.796875 -2.53125 1.890625 -2.859375 1.890625 -2.921875 C 1.921875 -3.015625 2.234375 -3.5625 2.578125 -3.84375 C 2.796875 -4 3.09375 -4.1875 3.53125 -4.1875 C 3.953125 -4.1875 4.0625 -3.84375 4.0625 -3.484375 C 4.0625 -2.953125 3.6875 -1.859375 3.453125 -1.25 C 3.375 -1.03125 3.3125 -0.90625 3.3125 -0.703125 C 3.3125 -0.234375 3.671875 0.109375 4.140625 0.109375 C 5.078125 0.109375 5.4375 -1.34375 5.4375 -1.421875 C 5.4375 -1.53125 5.359375 -1.53125 5.328125 -1.53125 C 5.21875 -1.53125 5.21875 -1.5 5.171875 -1.34375 C 5.03125 -0.8125 4.703125 -0.109375 4.15625 -0.109375 C 3.984375 -0.109375 3.921875 -0.203125 3.921875 -0.4375 C 3.921875 -0.6875 4 -0.921875 4.09375 -1.140625 C 4.25 -1.578125 4.703125 -2.765625 4.703125 -3.34375 C 4.703125 -3.984375 4.3125 -4.40625 3.5625 -4.40625 C 2.9375 -4.40625 2.453125 -4.09375 2.078125 -3.640625 Z M 2.859375 -6.8125 "
           style="stroke:none;" />
      </symbol>
    </g>
  </defs>
  <sodipodi:namedview
     inkscape:window-maximized="1"
     inkscape:window-y="0"
     inkscape:window-x="0"
     inkscape:window-height="1007"
     inkscape:window-width="1920"
     inkscape:snap-global="false"
     showgrid="false"
     inkscape:document-rotation="0"
     inkscape:current-layer="layer1"
     inkscape:document-units="mm"
     inkscape:cy="489.99716"
     inkscape:cx="396.85039"
     inkscape:zoom="0.72337262"
     inkscape:pageshadow="2"
     inkscape:pageopacity="0.0"
     borderopacity="1.0"
     bordercolor="#666666"
     pagecolor="#ffffff"
     id="base" />
  <metadata
     id="metadata5">
    <rdf:RDF>
      <cc:Work
         rdf:about="">
        <dc:format>image/svg+xml</dc:format>
        <dc:type
           rdf:resource="http://purl.org/dc/dcmitype/StillImage" />
        <dc:title></dc:title>
      </cc:Work>
    </rdf:RDF>
  </metadata>
  <g
     id="layer1"
     inkscape:groupmode="layer"
     inkscape:label="Layer 1">
    <path
       style="fill:none;stroke:#000000;stroke-width:1.165;stroke-linecap:butt;stroke-linejoin:miter;stroke-miterlimit:4;stroke-dasharray:none;stroke-opacity:1"
       d="m 136.65247,44.165769 c 5.39707,2.065938 10.86378,0.849364 13.71495,-6.080029"
       id="path1855-3"
       sodipodi:nodetypes="cc" />
    <circle
       r="11.545685"
       cy="176.47218"
       cx="59.049667"
       id="path844"
       style="fill:url(#radialGradient854);fill-opacity:1;stroke:#000000;stroke-width:0.446;stroke-linecap:round;stroke-linejoin:round;stroke-miterlimit:4;stroke-dasharray:none;stroke-opacity:1" />
    <text
       id="text866"
       y="179.01038"
       x="53.825016"
       style="font-style:normal;font-weight:normal;font-size:10.5833px;line-height:1.25;font-family:sans-serif;fill:#000000;fill-opacity:1;stroke:none;stroke-width:0.264583"
       xml:space="preserve"><tspan
         style="stroke-width:0.264583"
         y="179.01038"
         x="53.825016"
         id="tspan864"
         sodipodi:role="line">m</tspan></text>
    <path
       id="path868"
       d="M 70.336373,177.10822 H 97.133664"
       style="fill:none;stroke:#000000;stroke-width:1.365;stroke-linecap:butt;stroke-linejoin:miter;stroke-miterlimit:4;stroke-dasharray:none;stroke-opacity:1;marker-end:url(#Arrow1Mend)" />
    <text
       id="text1270"
       y="173.37076"
       x="77.944931"
       style="font-style:normal;font-weight:normal;font-size:10.5833px;line-height:1.25;font-family:sans-serif;fill:#000000;fill-opacity:1;stroke:none;stroke-width:0.264583"
       xml:space="preserve"><tspan
         style="stroke-width:0.264583"
         y="173.37076"
         x="77.944931"
         id="tspan1268"
         sodipodi:role="line">v</tspan></text>
    <rect
       ry="0.97155899"
       y="11.871215"
       x="131.87823"
       height="146.80789"
       width="5.4717832"
       id="rect1602"
       style="opacity:0.466357;fill:url(#linearGradient1610);fill-opacity:1;stroke:#757575;stroke-width:0.977071;stroke-linecap:round;stroke-linejoin:round;stroke-miterlimit:4;stroke-dasharray:none;stroke-opacity:0" />
    <path
       transform="translate(39.772803,0.51746853)"
       sodipodi:type="rect"
       d="m 71.247417,156.46228 h 46.883323 c 0.54192,0 0.9782,0.43628 0.9782,0.9782 v 40.0391 c 0,0.54192 -0.43628,0.9782 -0.9782,0.9782 H 71.247417 c -0.541922,0 -0.978199,-0.43628 -0.978199,-0.9782 v -40.0391 c 0,-0.54192 0.436277,-0.9782 0.978199,-0.9782 z"
       inkscape:path-effect="#path-effect1780"
       clip-path="url(#clipPath1774)"
       ry="0.97819895"
       y="156.46228"
       x="70.269218"
       height="41.995499"
       width="48.839722"
       id="rect1636"
       style="opacity:0.466357;fill:url(#radialGradient1646);fill-opacity:1;stroke:#757575;stroke-width:1.365;stroke-linecap:round;stroke-linejoin:round;stroke-miterlimit:4;stroke-dasharray:none;stroke-opacity:0" />
    <rect
       transform="rotate(-30.074999)"
       style="fill:url(#linearGradient1610-9);fill-opacity:1;stroke:#757575;stroke-width:0.977072;stroke-linecap:round;stroke-linejoin:round;stroke-miterlimit:4;stroke-dasharray:none;stroke-opacity:0"
       id="rect1602-6"
       width="5.4717832"
       height="146.80789"
       x="107.30373"
       y="78.639565"
       ry="0.97155899" />
    <path
       transform="rotate(-30.074999,117.63007,-61.929295)"
       d="m 71.247417,156.46228 h 46.883323 c 0.54192,0 0.9782,0.43628 0.9782,0.9782 v 40.0391 c 0,0.54192 -0.43628,0.9782 -0.9782,0.9782 H 71.247417 c -0.541922,0 -0.978199,-0.43628 -0.978199,-0.9782 v -40.0391 c 0,-0.54192 0.436277,-0.9782 0.978199,-0.9782 z"
       style="fill:url(#radialGradient1646-7);fill-opacity:1;stroke:#757575;stroke-width:1.365;stroke-linecap:round;stroke-linejoin:round;stroke-miterlimit:4;stroke-dasharray:none;stroke-opacity:0"
       id="rect1636-2"
       width="48.839722"
       height="41.995499"
       x="70.269218"
       y="156.46228"
       ry="0.97819895"
       clip-path="url(#clipath_lpe_path-effect1848)"
       inkscape:path-effect="#path-effect1848"
       sodipodi:type="rect" />
    <path
       sodipodi:nodetypes="cc"
       id="path1855"
       d="m 161.92476,180.86995 c 14.42195,1.54492 22.47093,-4.03723 30.30192,-9.86316"
       style="fill:none;stroke:#828282;stroke-width:1.165;stroke-linecap:butt;stroke-linejoin:miter;stroke-miterlimit:4;stroke-dasharray:6.99, 1.165;stroke-dashoffset:0;stroke-opacity:1;marker-end:url(#marker1859)" />
    <circle
       style="fill:url(#radialGradient854-6);fill-opacity:1;stroke:#000000;stroke-width:0.446;stroke-linecap:round;stroke-linejoin:round;stroke-miterlimit:4;stroke-dasharray:none;stroke-opacity:1"
       id="path844-7"
       cx="217.48865"
       cy="154.92999"
       r="11.545685" />
    <text
       xml:space="preserve"
       style="font-style:normal;font-weight:normal;font-size:10.5833px;line-height:1.25;font-family:sans-serif;fill:#000000;fill-opacity:1;stroke:none;stroke-width:0.264583"
       x="212.26401"
       y="157.46819"
       id="text866-9"><tspan
         sodipodi:role="line"
         id="tspan864-2"
         x="212.26401"
         y="157.46819"
         style="stroke-width:0.264583">m</tspan></text>
    <g
       inkscape:label=""
       transform="translate(49.699351,-27.997926)"
       id="g2147">
      <g
         id="g3590">
        <g
           id="g4343"
           style="fill:#000000;fill-opacity:1">
          <use
             height="100%"
             width="100%"
             id="use8383"
             y="81.962997"
             x="91.925003"
             xlink:href="#symbol337" />
        </g>
      </g>
    </g>
    <text
       id="text2498"
       y="163.05554"
       x="234.7733"
       style="font-style:normal;font-weight:normal;font-size:10.5833px;line-height:1.25;font-family:sans-serif;fill:#000000;fill-opacity:1;stroke:none;stroke-width:0.264583"
       xml:space="preserve"><tspan
         style="stroke-width:0.264583"
         y="163.05554"
         x="234.7733"
         id="tspan2496"
         sodipodi:role="line">M</tspan></text>
    <path
       sodipodi:nodetypes="ccccccc"
       id="path2500"
       d="m 157.29158,10.862025 13.27512,0.170836 34.75057,56.799122 10.71216,-0.552414 -5.42735,7.928059 33.60729,54.253952 -4.28005,11.38269"
       style="fill:none;stroke:#000000;stroke-width:1.03963;stroke-linecap:butt;stroke-linejoin:miter;stroke-miterlimit:4;stroke-dasharray:none;stroke-opacity:1" />
    <text
       id="text2504"
       y="67.675629"
       x="218.34633"
       style="font-style:normal;font-weight:normal;font-size:10.5833px;line-height:1.25;font-family:sans-serif;fill:#000000;fill-opacity:1;stroke:none;stroke-width:0.264583"
       xml:space="preserve"><tspan
         style="stroke-width:0.264583"
         y="67.675629"
         x="218.34633"
         id="tspan2502"
         sodipodi:role="line">R</tspan></text>
    <g
       inkscape:label=""
       transform="translate(66.575311,70.010953)"
       id="g2610">
      <g
         id="g6482">
        <g
           id="g2320"
           style="fill:#000000;fill-opacity:1">
          <use
             height="100%"
             width="100%"
             id="use3669"
             y="81.962997"
             x="91.925003"
             xlink:href="#symbol6560" />
        </g>
        <g
           id="g61"
           style="fill:#000000;fill-opacity:1">
          <use
             height="100%"
             width="100%"
             id="use9454"
             y="81.962997"
             x="100.227"
             xlink:href="#symbol1597" />
        </g>
      </g>
    </g>
    <path
       sodipodi:nodetypes="cc"
       id="path2629"
       d="m 173.98851,143.61161 72.28779,0.12597"
       style="fill:none;stroke:#696969;stroke-width:0.865;stroke-linecap:butt;stroke-linejoin:miter;stroke-miterlimit:4;stroke-dasharray:3.46, 0.865;stroke-dashoffset:0;stroke-opacity:1" />
    <path
       sodipodi:nodetypes="cc"
       id="path2631"
       d="m 174.15424,165.23612 0.39472,-22.15063"
       style="fill:none;stroke:#000000;stroke-width:0.965;stroke-linecap:butt;stroke-linejoin:miter;stroke-miterlimit:4;stroke-dasharray:none;stroke-opacity:1" />
    <path
       sodipodi:nodetypes="cc"
       id="path2633"
       d="m 174.31127,165.17089 -38.00536,0.0953"
       style="font-variation-settings:normal;opacity:1;vector-effect:none;fill:none;fill-opacity:1;stroke:#696969;stroke-width:0.865;stroke-linecap:butt;stroke-linejoin:miter;stroke-miterlimit:4;stroke-dasharray:3.46, 0.865;stroke-dashoffset:0;stroke-opacity:1;stop-color:#000000;stop-opacity:1" />
  </g>
</svg>
